<svg xmlns="http://www.w3.org/2000/svg" xmlns:xlink="http://www.w3.org/1999/xlink" width="500" zoomAndPan="magnify" viewBox="0 0 375 374.999991" height="500" preserveAspectRatio="xMidYMid meet" version="1.0"><defs><g/></defs><g fill="#ffffff" fill-opacity="1"><g transform="translate(37.500002, 240.767958)"><g><path d="M 47.183594 3.667969 C 50.851562 3.667969 54.523438 3.40625 58.191406 2.882812 C 61.863281 2.359375 65.792969 1.574219 69.464844 0.523438 C 73.132812 -0.785156 77.066406 -2.097656 80.734375 -3.933594 C 84.144531 -5.503906 87.289062 -7.339844 90.695312 -9.175781 C 93.582031 -11.007812 96.464844 -12.84375 99.085938 -14.679688 C 103.542969 -18.085938 108.785156 -22.019531 112.191406 -26.738281 C 115.863281 -31.457031 119.269531 -38.007812 119.269531 -44.300781 C 119.269531 -47.96875 117.695312 -51.117188 115.863281 -54.261719 C 114.550781 -56.621094 114.027344 -59.242188 112.976562 -61.601562 C 111.667969 -65.007812 110.355469 -67.105469 107.734375 -69.464844 C 106.6875 -70.511719 103.542969 -72.347656 103.542969 -73.921875 C 103.542969 -75.492188 106.425781 -76.019531 107.734375 -76.542969 C 109.308594 -77.328125 110.882812 -78.378906 112.453125 -79.164062 C 114.8125 -80.472656 117.171875 -81.261719 119.53125 -82.832031 C 122.414062 -84.667969 125.035156 -87.027344 127.917969 -89.125 C 130.539062 -90.695312 132.898438 -92.53125 135.257812 -94.890625 C 139.714844 -99.347656 143.910156 -103.804688 146.269531 -109.832031 C 146.792969 -111.144531 147.316406 -112.714844 147.839844 -114.289062 C 148.105469 -115.597656 147.839844 -116.648438 147.839844 -117.695312 C 147.839844 -119.007812 148.628906 -119.792969 148.890625 -120.84375 C 148.890625 -121.367188 148.890625 -122.152344 148.890625 -122.9375 C 148.890625 -123.988281 148.890625 -124.773438 148.890625 -125.558594 C 148.628906 -127.132812 147.578125 -128.707031 147.054688 -130.277344 C 146.792969 -131.851562 146.53125 -133.425781 146.269531 -134.996094 C 145.746094 -137.878906 144.957031 -140.238281 143.386719 -142.597656 C 141.550781 -144.957031 139.453125 -147.578125 137.09375 -149.675781 C 134.996094 -151.773438 132.375 -153.609375 129.753906 -154.65625 C 126.347656 -155.96875 122.9375 -156.753906 119.53125 -157.277344 C 116.125 -157.539062 112.453125 -157.800781 108.785156 -157.800781 C 104.066406 -157.800781 95.152344 -156.492188 93.84375 -156.492188 C 86.503906 -154.917969 79.164062 -153.085938 72.085938 -150.726562 C 66.320312 -148.890625 60.550781 -146.53125 54.785156 -143.910156 C 49.804688 -141.550781 44.824219 -139.191406 39.84375 -136.308594 C 35.125 -133.6875 30.929688 -130.539062 26.738281 -127.132812 C 24.902344 -125.558594 23.589844 -123.988281 21.757812 -122.414062 C 19.660156 -120.84375 16.515625 -118.484375 16.515625 -115.597656 C 16.515625 -112.453125 20.183594 -108.785156 23.328125 -108.785156 C 25.425781 -108.785156 27.261719 -111.667969 28.570312 -112.976562 C 30.40625 -114.8125 31.980469 -116.386719 34.078125 -117.957031 C 38.269531 -120.84375 42.203125 -123.464844 46.398438 -126.085938 C 50.589844 -128.707031 54.523438 -130.804688 58.980469 -132.898438 C 63.960938 -134.996094 68.679688 -136.832031 73.921875 -138.929688 C 76.28125 -139.976562 78.902344 -140.238281 81.523438 -141.289062 C 83.882812 -142.074219 86.503906 -143.125 88.863281 -143.648438 C 92.269531 -144.695312 96.464844 -145.746094 100.132812 -145.746094 C 100.921875 -145.746094 101.445312 -145.746094 102.230469 -145.746094 C 103.28125 -145.480469 104.066406 -145.480469 105.113281 -145.480469 C 107.996094 -145.480469 111.144531 -146.007812 114.027344 -146.007812 C 114.8125 -146.007812 115.597656 -146.007812 116.386719 -146.007812 C 118.746094 -145.746094 122.152344 -145.480469 125.296875 -144.957031 C 128.96875 -144.433594 132.375 -143.386719 134.996094 -141.550781 C 137.617188 -139.976562 139.191406 -137.617188 139.191406 -134.210938 C 139.191406 -132.375 139.191406 -130.015625 138.40625 -128.183594 C 137.617188 -126.609375 136.570312 -125.558594 136.046875 -123.726562 C 135.519531 -121.890625 134.210938 -119.792969 132.898438 -117.957031 C 131.589844 -116.125 130.015625 -114.289062 128.707031 -112.714844 C 125.824219 -109.570312 122.152344 -107.996094 118.746094 -105.375 C 117.695312 -104.328125 116.386719 -103.542969 115.335938 -102.492188 C 114.550781 -102.230469 114.289062 -101.707031 113.765625 -101.183594 C 113.503906 -100.65625 112.976562 -100.132812 112.714844 -100.132812 C 112.453125 -100.132812 112.191406 -100.394531 111.667969 -100.394531 C 111.144531 -100.394531 110.882812 -99.871094 110.617188 -99.609375 C 109.832031 -99.085938 108.785156 -98.300781 107.996094 -97.773438 C 106.425781 -96.726562 105.113281 -95.414062 103.542969 -94.105469 C 103.015625 -93.84375 102.230469 -93.582031 101.445312 -93.054688 C 100.65625 -92.792969 98.5625 -91.222656 95.941406 -89.386719 C 93.84375 -88.074219 90.695312 -87.027344 87.8125 -85.980469 C 84.667969 -84.929688 82.046875 -84.144531 81.523438 -84.144531 C 79.425781 -83.359375 75.753906 -82.570312 73.398438 -81.523438 C 71.300781 -80.734375 69.203125 -79.949219 67.105469 -79.6875 C 66.320312 -79.6875 63.699219 -78.640625 62.386719 -78.640625 C 61.339844 -78.640625 61.078125 -79.425781 61.078125 -79.6875 C 61.078125 -80.734375 62.125 -81.785156 62.648438 -82.308594 C 65.53125 -86.242188 68.679688 -90.433594 71.039062 -94.890625 C 73.660156 -99.085938 76.28125 -103.28125 79.425781 -107.210938 C 81 -109.046875 82.832031 -110.882812 83.882812 -112.976562 C 84.667969 -114.8125 86.242188 -116.910156 86.765625 -118.484375 C 86.765625 -119.007812 87.027344 -119.269531 87.027344 -119.53125 C 87.027344 -121.105469 85.980469 -122.9375 85.714844 -124.511719 C 85.714844 -125.558594 85.453125 -126.347656 84.929688 -126.871094 C 84.40625 -127.394531 83.882812 -127.65625 83.09375 -128.183594 C 82.570312 -128.707031 82.046875 -129.492188 81.785156 -129.492188 C 80.472656 -129.753906 80.472656 -130.539062 79.6875 -131.066406 C 79.425781 -131.066406 79.164062 -131.066406 78.902344 -131.066406 C 77.851562 -131.066406 76.542969 -131.066406 76.019531 -130.804688 C 74.445312 -130.277344 73.660156 -128.183594 72.871094 -126.871094 C 71.300781 -125.035156 70.25 -122.9375 69.203125 -121.105469 C 66.320312 -116.386719 63.171875 -111.929688 60.027344 -107.472656 C 57.667969 -103.542969 55.046875 -99.871094 52.425781 -96.203125 C 50.066406 -92.269531 47.707031 -88.339844 45.085938 -84.667969 C 42.726562 -81.261719 40.890625 -77.066406 38.269531 -73.921875 C 35.125 -69.988281 32.503906 -65.792969 29.882812 -61.601562 C 27 -57.144531 23.855469 -52.6875 21.234375 -47.96875 C 20.96875 -47.707031 20.183594 -45.609375 19.136719 -43.511719 C 18.347656 -42.203125 16.515625 -39.320312 16.253906 -38.796875 C 15.726562 -38.007812 15.203125 -36.699219 14.15625 -35.125 C 13.628906 -34.078125 13.105469 -33.027344 12.582031 -31.71875 C 11.796875 -30.667969 11.535156 -28.835938 11.273438 -28.308594 C 10.484375 -27.785156 9.960938 -27.523438 9.4375 -26.738281 C 9.175781 -26.476562 8.914062 -26.214844 8.648438 -25.6875 C 7.601562 -23.589844 6.554688 -22.019531 5.765625 -19.921875 C 4.980469 -18.347656 3.933594 -16.253906 3.667969 -14.417969 C 3.667969 -14.15625 3.667969 -13.894531 3.667969 -13.628906 C 3.667969 -12.582031 4.980469 -11.273438 4.980469 -9.960938 C 4.980469 -8.125 5.242188 -6.292969 5.503906 -4.457031 C 5.765625 -3.933594 6.292969 -1.835938 7.339844 -1.835938 C 8.125 -1.835938 8.125 -2.359375 8.125 -2.882812 C 8.125 -4.195312 7.863281 -5.503906 8.648438 -5.503906 C 9.4375 -5.503906 9.699219 -3.144531 9.699219 -2.359375 C 9.960938 -0.785156 10.222656 1.3125 11.535156 2.359375 C 12.320312 2.882812 12.84375 3.144531 13.367188 3.144531 C 14.679688 3.144531 15.203125 1.835938 15.726562 0.523438 C 16.253906 -0.785156 16.515625 -2.097656 16.777344 -3.144531 C 17.039062 -4.457031 17.824219 -11.007812 19.136719 -11.007812 C 19.921875 -11.007812 20.445312 -10.222656 21.234375 -9.175781 C 22.019531 -7.601562 22.804688 -5.765625 23.328125 -5.242188 C 25.6875 -2.621094 28.308594 -0.523438 31.457031 0.785156 C 34.339844 2.097656 37.222656 3.144531 40.367188 3.40625 C 42.726562 3.667969 45.085938 3.667969 47.183594 3.667969 Z M 49.804688 -13.628906 C 46.660156 -13.367188 40.105469 -13.367188 35.386719 -14.679688 C 32.503906 -15.464844 29.359375 -16.777344 28.570312 -17.300781 C 26.738281 -18.347656 24.902344 -20.183594 24.902344 -22.019531 C 24.902344 -23.855469 26.738281 -25.6875 27.523438 -27.261719 C 29.097656 -30.929688 31.195312 -34.601562 33.550781 -38.007812 C 35.386719 -40.628906 37.222656 -43.511719 38.796875 -46.136719 C 40.628906 -48.757812 42.464844 -51.640625 44.039062 -54.523438 C 45.085938 -56.097656 46.398438 -59.503906 47.96875 -60.550781 C 48.492188 -60.8125 48.757812 -61.078125 49.019531 -61.078125 C 49.542969 -61.078125 50.066406 -60.289062 50.851562 -59.503906 C 51.902344 -58.71875 53.210938 -56.882812 54.523438 -56.882812 C 55.832031 -56.882812 58.71875 -57.929688 59.503906 -58.191406 C 63.4375 -58.71875 67.105469 -59.765625 70.773438 -61.078125 C 76.019531 -62.910156 80.734375 -65.007812 85.980469 -66.582031 C 87.027344 -67.105469 87.8125 -67.105469 88.863281 -67.105469 C 92.269531 -67.105469 96.203125 -65.792969 99.085938 -64.746094 C 102.492188 -63.699219 106.6875 -61.078125 108.785156 -58.191406 C 109.308594 -57.144531 109.570312 -56.097656 109.570312 -55.046875 C 109.570312 -52.949219 108.785156 -50.851562 108.261719 -48.757812 C 107.734375 -46.921875 106.6875 -45.609375 105.636719 -44.300781 C 104.851562 -42.988281 103.804688 -40.890625 102.753906 -39.582031 C 101.445312 -38.269531 100.65625 -37.484375 98.824219 -35.910156 C 97.25 -34.863281 96.726562 -33.289062 94.890625 -31.980469 C 92.007812 -29.882812 89.386719 -27.523438 86.503906 -25.949219 C 84.40625 -24.902344 82.832031 -24.117188 81.523438 -23.328125 C 79.164062 -22.28125 77.328125 -21.757812 76.28125 -21.234375 C 74.707031 -20.445312 72.871094 -19.660156 71.300781 -18.875 C 69.464844 -18.085938 67.367188 -17.300781 65.53125 -16.777344 C 63.699219 -15.988281 62.125 -15.464844 60.550781 -15.203125 C 57.667969 -14.417969 53.472656 -13.894531 49.804688 -13.628906 Z M 49.804688 -13.628906 "/></g></g></g><g fill="#ffffff" fill-opacity="1"><g transform="translate(167.510091, 240.767958)"><g><path d="M 145.21875 -149.414062 C 143.386719 -152.558594 141.027344 -155.179688 137.617188 -156.753906 C 136.832031 -157.015625 136.308594 -157.015625 135.519531 -157.015625 C 134.472656 -157.015625 133.6875 -155.96875 132.636719 -155.96875 C 131.589844 -155.96875 131.066406 -156.753906 130.277344 -157.015625 C 129.753906 -157.015625 129.492188 -156.753906 128.707031 -156.492188 C 127.394531 -155.707031 126.085938 -154.917969 126.085938 -153.871094 C 126.085938 -153.347656 126.085938 -153.085938 126.347656 -152.820312 C 126.609375 -152.035156 127.132812 -151.25 127.917969 -150.460938 C 128.445312 -149.675781 129.230469 -148.367188 129.753906 -147.578125 C 130.804688 -146.269531 131.328125 -145.21875 131.328125 -143.910156 C 131.328125 -141.8125 130.804688 -141.289062 130.804688 -139.976562 C 130.804688 -138.929688 131.851562 -138.40625 131.851562 -137.09375 C 131.851562 -135.519531 130.804688 -133.949219 130.539062 -132.375 C 129.753906 -130.277344 128.707031 -128.707031 127.917969 -126.871094 C 127.132812 -125.035156 126.347656 -123.203125 125.296875 -121.628906 C 124.511719 -119.792969 123.464844 -117.957031 122.675781 -116.386719 C 122.152344 -114.550781 121.105469 -114.027344 120.054688 -112.453125 C 119.007812 -111.144531 118.222656 -109.046875 117.171875 -107.472656 C 115.335938 -105.113281 113.242188 -102.492188 111.667969 -99.871094 C 110.617188 -98.300781 109.308594 -97.25 108.261719 -95.941406 C 107.210938 -94.367188 106.6875 -92.53125 105.375 -90.960938 C 102.753906 -87.550781 100.132812 -84.40625 97.773438 -81 C 95.152344 -77.589844 92.53125 -74.183594 89.648438 -70.773438 C 87.027344 -67.628906 84.40625 -64.484375 81.785156 -61.078125 C 80.472656 -59.503906 78.640625 -58.191406 77.328125 -56.621094 C 76.019531 -55.046875 74.96875 -53.738281 73.660156 -52.164062 C 70.511719 -49.019531 67.628906 -45.871094 64.746094 -42.726562 C 61.601562 -39.582031 58.453125 -36.4375 55.308594 -33.289062 C 52.164062 -30.40625 49.28125 -27.523438 46.136719 -24.640625 C 42.726562 -21.757812 39.582031 -18.875 36.175781 -15.988281 C 32.503906 -13.105469 28.835938 -9.960938 25.164062 -6.816406 C 23.855469 -5.765625 22.542969 -3.933594 20.707031 -3.144531 C 20.183594 -2.882812 19.660156 -2.882812 19.660156 -2.882812 C 19.136719 -2.882812 19.136719 -3.144531 19.136719 -3.40625 C 19.136719 -6.816406 20.96875 -11.796875 22.019531 -15.988281 C 22.804688 -19.921875 23.855469 -23.589844 24.902344 -27.523438 C 25.425781 -29.097656 25.425781 -30.667969 25.949219 -31.980469 C 26.476562 -33.027344 27.523438 -34.601562 27.523438 -35.648438 C 27.523438 -36.4375 27.261719 -36.699219 27.261719 -37.222656 C 27.261719 -37.484375 27.523438 -38.007812 27.523438 -38.269531 C 27.785156 -39.320312 28.308594 -40.105469 28.835938 -40.890625 C 29.621094 -42.464844 30.144531 -44.300781 30.929688 -46.136719 C 31.457031 -47.96875 31.980469 -49.804688 32.765625 -51.378906 C 33.027344 -52.164062 33.027344 -52.949219 33.289062 -53.738281 C 33.289062 -54 33.289062 -54.261719 33.289062 -54.523438 C 33.289062 -55.570312 34.601562 -56.097656 35.125 -57.144531 C 35.386719 -58.191406 35.648438 -58.980469 36.175781 -60.027344 C 36.699219 -61.601562 37.222656 -62.910156 37.746094 -64.484375 C 38.269531 -66.582031 39.582031 -68.152344 40.367188 -69.988281 C 41.15625 -72.085938 41.941406 -73.921875 42.726562 -75.753906 C 44.5625 -79.164062 46.136719 -82.832031 47.707031 -86.503906 C 49.28125 -89.910156 51.117188 -93.320312 52.6875 -96.726562 C 54.785156 -100.65625 57.144531 -104.589844 58.453125 -108.785156 C 59.765625 -112.453125 62.386719 -116.125 64.222656 -119.792969 C 66.582031 -123.726562 68.417969 -127.917969 71.300781 -131.589844 C 73.921875 -134.734375 76.019531 -137.878906 76.019531 -142.335938 C 76.019531 -144.171875 75.492188 -145.480469 73.921875 -147.054688 C 72.871094 -148.105469 71.5625 -149.152344 69.988281 -149.9375 C 68.417969 -150.726562 67.105469 -150.199219 65.53125 -150.460938 C 65.007812 -150.460938 65.007812 -150.988281 64.222656 -150.988281 C 63.699219 -150.988281 62.910156 -150.460938 62.386719 -150.199219 C 59.765625 -148.628906 56.882812 -147.054688 55.570312 -144.433594 C 54.785156 -142.859375 54.261719 -141.027344 53.738281 -139.714844 C 52.949219 -137.878906 52.164062 -136.308594 51.378906 -134.472656 C 49.542969 -130.277344 47.707031 -126.085938 45.871094 -121.890625 C 44.039062 -117.433594 41.941406 -113.242188 40.105469 -109.046875 C 38.53125 -106.164062 37.484375 -103.28125 35.910156 -100.65625 C 35.648438 -99.871094 35.125 -99.347656 35.125 -98.300781 C 35.125 -97.773438 35.386719 -97.25 35.386719 -96.726562 C 35.386719 -96.203125 35.125 -95.941406 34.863281 -95.675781 C 34.339844 -95.675781 33.816406 -95.675781 33.816406 -95.152344 C 33.289062 -94.628906 34.078125 -94.105469 33.816406 -93.582031 C 33.816406 -92.007812 32.765625 -90.433594 32.242188 -89.125 C 32.242188 -89.125 31.980469 -88.601562 30.929688 -85.714844 C 30.144531 -84.40625 28.308594 -80.734375 25.949219 -75.753906 C 24.640625 -72.609375 23.855469 -69.464844 22.28125 -66.058594 C 20.96875 -62.910156 19.136719 -58.980469 17.824219 -55.308594 C 15.464844 -48.757812 13.105469 -41.417969 11.535156 -36.175781 C 9.699219 -29.621094 8.125 -24.117188 7.601562 -22.28125 C 7.078125 -19.660156 6.292969 -17.5625 5.765625 -15.203125 C 5.765625 -14.417969 5.765625 -13.367188 5.242188 -12.84375 C 4.71875 -12.058594 4.195312 -12.058594 3.667969 -11.535156 C 3.144531 -11.007812 2.882812 -10.484375 2.882812 -10.222656 C 2.882812 -9.4375 3.40625 -8.914062 3.933594 -8.125 C 4.71875 -7.078125 5.242188 -5.503906 5.503906 -4.195312 C 5.765625 -3.40625 6.027344 -2.097656 6.292969 -0.785156 C 6.554688 0 6.816406 0.785156 7.601562 1.3125 C 7.863281 1.574219 8.648438 1.3125 9.175781 1.574219 C 9.699219 1.835938 10.222656 2.359375 10.484375 2.882812 C 11.007812 3.667969 11.273438 4.457031 12.058594 4.980469 C 12.320312 5.503906 12.84375 5.765625 13.367188 5.765625 C 14.417969 5.765625 14.941406 4.457031 15.464844 4.457031 C 15.988281 4.457031 15.988281 4.980469 16.253906 5.765625 C 16.253906 6.292969 16.515625 7.078125 17.039062 7.078125 C 17.5625 7.078125 18.085938 6.292969 18.609375 6.292969 C 19.136719 6.027344 19.921875 6.027344 20.445312 6.027344 C 22.542969 6.027344 24.378906 5.765625 25.949219 5.503906 C 29.097656 4.71875 31.71875 3.144531 34.601562 1.3125 C 38.53125 -1.3125 42.203125 -4.195312 46.136719 -7.339844 C 49.542969 -10.222656 52.949219 -13.367188 56.097656 -16.253906 C 59.242188 -19.136719 62.125 -22.019531 65.269531 -24.902344 C 68.417969 -27.785156 71.300781 -30.929688 74.445312 -34.078125 C 77.589844 -37.222656 81 -40.367188 83.882812 -44.039062 C 85.191406 -45.609375 85.714844 -47.183594 87.289062 -48.230469 C 88.863281 -49.542969 89.910156 -50.851562 91.222656 -52.425781 C 92.53125 -54 93.84375 -55.570312 95.152344 -57.144531 C 96.464844 -58.453125 96.988281 -60.027344 98.5625 -61.339844 C 100.132812 -62.910156 100.65625 -63.4375 101.445312 -65.53125 C 102.230469 -66.84375 103.542969 -67.105469 104.589844 -68.417969 C 105.902344 -69.726562 106.6875 -71.300781 107.734375 -72.871094 C 108.523438 -74.445312 109.308594 -75.753906 110.355469 -76.804688 C 112.191406 -78.113281 113.503906 -79.949219 114.8125 -81.523438 C 115.863281 -83.09375 116.910156 -84.40625 117.957031 -85.980469 C 119.269531 -87.8125 120.316406 -89.648438 121.890625 -91.222656 C 122.675781 -92.53125 123.988281 -93.582031 124.773438 -94.890625 C 125.558594 -96.726562 126.347656 -98.300781 127.65625 -99.871094 C 128.707031 -101.183594 130.277344 -102.492188 131.066406 -104.066406 C 133.164062 -107.472656 135.519531 -111.144531 137.355469 -114.8125 C 139.191406 -118.222656 141.027344 -121.628906 142.859375 -125.035156 C 144.957031 -130.015625 147.316406 -135.785156 147.316406 -141.289062 C 147.316406 -144.171875 146.792969 -146.792969 145.21875 -149.414062 Z M 145.21875 -149.414062 "/></g></g></g></svg>