<svg xmlns="http://www.w3.org/2000/svg" xmlns:xlink="http://www.w3.org/1999/xlink" width="500" zoomAndPan="magnify" viewBox="0 0 375 374.999991" height="500" preserveAspectRatio="xMidYMid meet" version="1.0"><defs><g/></defs><g fill="#000000" fill-opacity="1"><g transform="translate(78.802539, 238.290695)"><g><path d="M 46.753906 3.636719 C 50.390625 3.636719 54.027344 3.375 57.664062 2.855469 C 61.296875 2.335938 65.195312 1.558594 68.832031 0.519531 C 72.46875 -0.777344 76.363281 -2.078125 80 -3.894531 C 83.375 -5.453125 86.492188 -7.273438 89.871094 -9.089844 C 92.726562 -10.910156 95.585938 -12.726562 98.183594 -14.546875 C 102.597656 -17.921875 107.792969 -21.816406 111.167969 -26.492188 C 114.804688 -31.167969 118.183594 -37.664062 118.183594 -43.894531 C 118.183594 -47.53125 116.625 -50.648438 114.804688 -53.765625 C 113.507812 -56.105469 112.988281 -58.703125 111.949219 -61.039062 C 110.648438 -64.414062 109.351562 -66.492188 106.753906 -68.832031 C 105.714844 -69.871094 102.597656 -71.6875 102.597656 -73.246094 C 102.597656 -74.804688 105.453125 -75.324219 106.753906 -75.84375 C 108.3125 -76.625 109.871094 -77.664062 111.429688 -78.441406 C 113.765625 -79.738281 116.105469 -80.519531 118.441406 -82.078125 C 121.296875 -83.894531 123.894531 -86.234375 126.753906 -88.3125 C 129.351562 -89.871094 131.6875 -91.6875 134.027344 -94.027344 C 138.441406 -98.441406 142.597656 -102.855469 144.933594 -108.832031 C 145.453125 -110.128906 145.972656 -111.6875 146.492188 -113.246094 C 146.753906 -114.546875 146.492188 -115.585938 146.492188 -116.625 C 146.492188 -117.921875 147.273438 -118.703125 147.53125 -119.738281 C 147.53125 -120.257812 147.53125 -121.039062 147.53125 -121.816406 C 147.53125 -122.855469 147.53125 -123.636719 147.53125 -124.414062 C 147.273438 -125.972656 146.234375 -127.53125 145.714844 -129.089844 C 145.453125 -130.648438 145.195312 -132.207031 144.933594 -133.765625 C 144.414062 -136.625 143.636719 -138.960938 142.078125 -141.296875 C 140.257812 -143.636719 138.183594 -146.234375 135.84375 -148.3125 C 133.765625 -150.390625 131.167969 -152.207031 128.570312 -153.246094 C 125.195312 -154.546875 121.816406 -155.324219 118.441406 -155.84375 C 115.066406 -156.105469 111.429688 -156.363281 107.792969 -156.363281 C 103.117188 -156.363281 94.285156 -155.066406 92.988281 -155.066406 C 85.714844 -153.507812 78.441406 -151.6875 71.429688 -149.351562 C 65.714844 -147.53125 60 -145.195312 54.285156 -142.597656 C 49.351562 -140.257812 44.414062 -137.921875 39.480469 -135.066406 C 34.804688 -132.46875 30.648438 -129.351562 26.492188 -125.972656 C 24.675781 -124.414062 23.375 -122.855469 21.558594 -121.296875 C 19.480469 -119.738281 16.363281 -117.402344 16.363281 -114.546875 C 16.363281 -111.429688 20 -107.792969 23.117188 -107.792969 C 25.195312 -107.792969 27.011719 -110.648438 28.3125 -111.949219 C 30.128906 -113.765625 31.6875 -115.324219 33.765625 -116.882812 C 37.921875 -119.738281 41.816406 -122.335938 45.972656 -124.933594 C 50.128906 -127.53125 54.027344 -129.609375 58.441406 -131.6875 C 63.375 -133.765625 68.050781 -135.585938 73.246094 -137.664062 C 75.585938 -138.699219 78.183594 -138.960938 80.777344 -140 C 83.117188 -140.777344 85.714844 -141.816406 88.050781 -142.335938 C 91.429688 -143.375 95.585938 -144.414062 99.21875 -144.414062 C 100 -144.414062 100.519531 -144.414062 101.296875 -144.414062 C 102.335938 -144.15625 103.117188 -144.15625 104.15625 -144.15625 C 107.011719 -144.15625 110.128906 -144.675781 112.988281 -144.675781 C 113.765625 -144.675781 114.546875 -144.675781 115.324219 -144.675781 C 117.664062 -144.414062 121.039062 -144.15625 124.15625 -143.636719 C 127.792969 -143.117188 131.167969 -142.078125 133.765625 -140.257812 C 136.363281 -138.699219 137.921875 -136.363281 137.921875 -132.988281 C 137.921875 -131.167969 137.921875 -128.832031 137.144531 -127.011719 C 136.363281 -125.453125 135.324219 -124.414062 134.804688 -122.597656 C 134.285156 -120.777344 132.988281 -118.703125 131.6875 -116.882812 C 130.390625 -115.066406 128.832031 -113.246094 127.53125 -111.6875 C 124.675781 -108.570312 121.039062 -107.011719 117.664062 -104.414062 C 116.625 -103.375 115.324219 -102.597656 114.285156 -101.558594 C 113.507812 -101.296875 113.246094 -100.777344 112.726562 -100.257812 C 112.46875 -99.738281 111.949219 -99.21875 111.6875 -99.21875 C 111.429688 -99.21875 111.167969 -99.480469 110.648438 -99.480469 C 110.128906 -99.480469 109.871094 -98.960938 109.609375 -98.703125 C 108.832031 -98.183594 107.792969 -97.402344 107.011719 -96.882812 C 105.453125 -95.84375 104.15625 -94.546875 102.597656 -93.246094 C 102.078125 -92.988281 101.296875 -92.726562 100.519531 -92.207031 C 99.738281 -91.949219 97.664062 -90.390625 95.066406 -88.570312 C 92.988281 -87.273438 89.871094 -86.234375 87.011719 -85.195312 C 83.894531 -84.15625 81.296875 -83.375 80.777344 -83.375 C 78.703125 -82.597656 75.066406 -81.816406 72.726562 -80.777344 C 70.648438 -80 68.570312 -79.21875 66.492188 -78.960938 C 65.714844 -78.960938 63.117188 -77.921875 61.816406 -77.921875 C 60.777344 -77.921875 60.519531 -78.703125 60.519531 -78.960938 C 60.519531 -80 61.558594 -81.039062 62.078125 -81.558594 C 64.933594 -85.453125 68.050781 -89.609375 70.390625 -94.027344 C 72.988281 -98.183594 75.585938 -102.335938 78.703125 -106.234375 C 80.257812 -108.050781 82.078125 -109.871094 83.117188 -111.949219 C 83.894531 -113.765625 85.453125 -115.84375 85.972656 -117.402344 C 85.972656 -117.921875 86.234375 -118.183594 86.234375 -118.441406 C 86.234375 -120 85.195312 -121.816406 84.933594 -123.375 C 84.933594 -124.414062 84.675781 -125.195312 84.15625 -125.714844 C 83.636719 -126.234375 83.117188 -126.492188 82.335938 -127.011719 C 81.816406 -127.53125 81.296875 -128.3125 81.039062 -128.3125 C 79.738281 -128.570312 79.738281 -129.351562 78.960938 -129.871094 C 78.703125 -129.871094 78.441406 -129.871094 78.183594 -129.871094 C 77.144531 -129.871094 75.84375 -129.871094 75.324219 -129.609375 C 73.765625 -129.089844 72.988281 -127.011719 72.207031 -125.714844 C 70.648438 -123.894531 69.609375 -121.816406 68.570312 -120 C 65.714844 -115.324219 62.597656 -110.910156 59.480469 -106.492188 C 57.144531 -102.597656 54.546875 -98.960938 51.949219 -95.324219 C 49.609375 -91.429688 47.273438 -87.53125 44.675781 -83.894531 C 42.335938 -80.519531 40.519531 -76.363281 37.921875 -73.246094 C 34.804688 -69.351562 32.207031 -65.195312 29.609375 -61.039062 C 26.753906 -56.625 23.636719 -52.207031 21.039062 -47.53125 C 20.777344 -47.273438 20 -45.195312 18.960938 -43.117188 C 18.183594 -41.816406 16.363281 -38.960938 16.105469 -38.441406 C 15.585938 -37.664062 15.066406 -36.363281 14.027344 -34.804688 C 13.507812 -33.765625 12.988281 -32.726562 12.46875 -31.429688 C 11.6875 -30.390625 11.429688 -28.570312 11.167969 -28.050781 C 10.390625 -27.53125 9.871094 -27.273438 9.351562 -26.492188 C 9.089844 -26.234375 8.832031 -25.972656 8.570312 -25.453125 C 7.53125 -23.375 6.492188 -21.816406 5.714844 -19.742188 C 4.933594 -18.183594 3.894531 -16.105469 3.636719 -14.285156 C 3.636719 -14.027344 3.636719 -13.765625 3.636719 -13.507812 C 3.636719 -12.46875 4.933594 -11.167969 4.933594 -9.871094 C 4.933594 -8.050781 5.195312 -6.234375 5.453125 -4.414062 C 5.714844 -3.894531 6.234375 -1.816406 7.273438 -1.816406 C 8.050781 -1.816406 8.050781 -2.335938 8.050781 -2.855469 C 8.050781 -4.15625 7.792969 -5.453125 8.570312 -5.453125 C 9.351562 -5.453125 9.609375 -3.117188 9.609375 -2.335938 C 9.871094 -0.777344 10.128906 1.296875 11.429688 2.335938 C 12.207031 2.855469 12.726562 3.117188 13.246094 3.117188 C 14.546875 3.117188 15.066406 1.816406 15.585938 0.519531 C 16.105469 -0.777344 16.363281 -2.078125 16.625 -3.117188 C 16.882812 -4.414062 17.664062 -10.910156 18.960938 -10.910156 C 19.742188 -10.910156 20.257812 -10.128906 21.039062 -9.089844 C 21.816406 -7.53125 22.597656 -5.714844 23.117188 -5.195312 C 25.453125 -2.597656 28.050781 -0.519531 31.167969 0.777344 C 34.027344 2.078125 36.882812 3.117188 40 3.375 C 42.335938 3.636719 44.675781 3.636719 46.753906 3.636719 Z M 49.351562 -13.507812 C 46.234375 -13.246094 39.738281 -13.246094 35.066406 -14.546875 C 32.207031 -15.324219 29.089844 -16.625 28.3125 -17.144531 C 26.492188 -18.183594 24.675781 -20 24.675781 -21.816406 C 24.675781 -23.636719 26.492188 -25.453125 27.273438 -27.011719 C 28.832031 -30.648438 30.910156 -34.285156 33.246094 -37.664062 C 35.066406 -40.257812 36.882812 -43.117188 38.441406 -45.714844 C 40.257812 -48.3125 42.078125 -51.167969 43.636719 -54.027344 C 44.675781 -55.585938 45.972656 -58.960938 47.53125 -60 C 48.050781 -60.257812 48.3125 -60.519531 48.570312 -60.519531 C 49.089844 -60.519531 49.609375 -59.738281 50.390625 -58.960938 C 51.429688 -58.183594 52.726562 -56.363281 54.027344 -56.363281 C 55.324219 -56.363281 58.183594 -57.402344 58.960938 -57.664062 C 62.855469 -58.183594 66.492188 -59.222656 70.128906 -60.519531 C 75.324219 -62.335938 80 -64.414062 85.195312 -65.972656 C 86.234375 -66.492188 87.011719 -66.492188 88.050781 -66.492188 C 91.429688 -66.492188 95.324219 -65.195312 98.183594 -64.15625 C 101.558594 -63.117188 105.714844 -60.519531 107.792969 -57.664062 C 108.3125 -56.625 108.570312 -55.585938 108.570312 -54.546875 C 108.570312 -52.46875 107.792969 -50.390625 107.273438 -48.3125 C 106.753906 -46.492188 105.714844 -45.195312 104.675781 -43.894531 C 103.894531 -42.597656 102.855469 -40.519531 101.816406 -39.222656 C 100.519531 -37.921875 99.738281 -37.144531 97.921875 -35.585938 C 96.363281 -34.546875 95.84375 -32.988281 94.027344 -31.6875 C 91.167969 -29.609375 88.570312 -27.273438 85.714844 -25.714844 C 83.636719 -24.675781 82.078125 -23.894531 80.777344 -23.117188 C 78.441406 -22.078125 76.625 -21.558594 75.585938 -21.039062 C 74.027344 -20.257812 72.207031 -19.480469 70.648438 -18.703125 C 68.832031 -17.921875 66.753906 -17.144531 64.933594 -16.625 C 63.117188 -15.84375 61.558594 -15.324219 60 -15.066406 C 57.144531 -14.285156 52.988281 -13.765625 49.351562 -13.507812 Z M 49.351562 -13.507812 "/></g></g></g><g fill="#000000" fill-opacity="1"><g transform="translate(190.23061, 238.290695)"><g><path d="M 143.894531 -148.050781 C 142.078125 -151.167969 139.738281 -153.765625 136.363281 -155.324219 C 135.585938 -155.585938 135.066406 -155.585938 134.285156 -155.585938 C 133.246094 -155.585938 132.46875 -154.546875 131.429688 -154.546875 C 130.390625 -154.546875 129.871094 -155.324219 129.089844 -155.585938 C 128.570312 -155.585938 128.3125 -155.324219 127.53125 -155.066406 C 126.234375 -154.285156 124.933594 -153.507812 124.933594 -152.46875 C 124.933594 -151.949219 124.933594 -151.6875 125.195312 -151.429688 C 125.453125 -150.648438 125.972656 -149.871094 126.753906 -149.089844 C 127.273438 -148.3125 128.050781 -147.011719 128.570312 -146.234375 C 129.609375 -144.933594 130.128906 -143.894531 130.128906 -142.597656 C 130.128906 -140.519531 129.609375 -140 129.609375 -138.699219 C 129.609375 -137.664062 130.648438 -137.144531 130.648438 -135.84375 C 130.648438 -134.285156 129.609375 -132.726562 129.351562 -131.167969 C 128.570312 -129.089844 127.53125 -127.53125 126.753906 -125.714844 C 125.972656 -123.894531 125.195312 -122.078125 124.15625 -120.519531 C 123.375 -118.703125 122.335938 -116.882812 121.558594 -115.324219 C 121.039062 -113.507812 120 -112.988281 118.960938 -111.429688 C 117.921875 -110.128906 117.144531 -108.050781 116.105469 -106.492188 C 114.285156 -104.15625 112.207031 -101.558594 110.648438 -98.960938 C 109.609375 -97.402344 108.3125 -96.363281 107.273438 -95.066406 C 106.234375 -93.507812 105.714844 -91.6875 104.414062 -90.128906 C 101.816406 -86.753906 99.21875 -83.636719 96.882812 -80.257812 C 94.285156 -76.882812 91.6875 -73.507812 88.832031 -70.128906 C 86.234375 -67.011719 83.636719 -63.894531 81.039062 -60.519531 C 79.738281 -58.960938 77.921875 -57.664062 76.625 -56.105469 C 75.324219 -54.546875 74.285156 -53.246094 72.988281 -51.6875 C 69.871094 -48.570312 67.011719 -45.453125 64.15625 -42.335938 C 61.039062 -39.222656 57.921875 -36.105469 54.804688 -32.988281 C 51.6875 -30.128906 48.832031 -27.273438 45.714844 -24.414062 C 42.335938 -21.558594 39.222656 -18.703125 35.84375 -15.84375 C 32.207031 -12.988281 28.570312 -9.871094 24.933594 -6.753906 C 23.636719 -5.714844 22.335938 -3.894531 20.519531 -3.117188 C 20 -2.855469 19.480469 -2.855469 19.480469 -2.855469 C 18.960938 -2.855469 18.960938 -3.117188 18.960938 -3.375 C 18.960938 -6.753906 20.777344 -11.6875 21.816406 -15.84375 C 22.597656 -19.742188 23.636719 -23.375 24.675781 -27.273438 C 25.195312 -28.832031 25.195312 -30.390625 25.714844 -31.6875 C 26.234375 -32.726562 27.273438 -34.285156 27.273438 -35.324219 C 27.273438 -36.105469 27.011719 -36.363281 27.011719 -36.882812 C 27.011719 -37.144531 27.273438 -37.664062 27.273438 -37.921875 C 27.53125 -38.960938 28.050781 -39.738281 28.570312 -40.519531 C 29.351562 -42.078125 29.871094 -43.894531 30.648438 -45.714844 C 31.167969 -47.53125 31.6875 -49.351562 32.46875 -50.910156 C 32.726562 -51.6875 32.726562 -52.46875 32.988281 -53.246094 C 32.988281 -53.507812 32.988281 -53.765625 32.988281 -54.027344 C 32.988281 -55.066406 34.285156 -55.585938 34.804688 -56.625 C 35.066406 -57.664062 35.324219 -58.441406 35.84375 -59.480469 C 36.363281 -61.039062 36.882812 -62.335938 37.402344 -63.894531 C 37.921875 -65.972656 39.222656 -67.53125 40 -69.351562 C 40.777344 -71.429688 41.558594 -73.246094 42.335938 -75.066406 C 44.15625 -78.441406 45.714844 -82.078125 47.273438 -85.714844 C 48.832031 -89.089844 50.648438 -92.46875 52.207031 -95.84375 C 54.285156 -99.738281 56.625 -103.636719 57.921875 -107.792969 C 59.222656 -111.429688 61.816406 -115.066406 63.636719 -118.703125 C 65.972656 -122.597656 67.792969 -126.753906 70.648438 -130.390625 C 73.246094 -133.507812 75.324219 -136.625 75.324219 -141.039062 C 75.324219 -142.855469 74.804688 -144.15625 73.246094 -145.714844 C 72.207031 -146.753906 70.910156 -147.792969 69.351562 -148.570312 C 67.792969 -149.351562 66.492188 -148.832031 64.933594 -149.089844 C 64.414062 -149.089844 64.414062 -149.609375 63.636719 -149.609375 C 63.117188 -149.609375 62.335938 -149.089844 61.816406 -148.832031 C 59.222656 -147.273438 56.363281 -145.714844 55.066406 -143.117188 C 54.285156 -141.558594 53.765625 -139.738281 53.246094 -138.441406 C 52.46875 -136.625 51.6875 -135.066406 50.910156 -133.246094 C 49.089844 -129.089844 47.273438 -124.933594 45.453125 -120.777344 C 43.636719 -116.363281 41.558594 -112.207031 39.738281 -108.050781 C 38.183594 -105.195312 37.144531 -102.335938 35.585938 -99.738281 C 35.324219 -98.960938 34.804688 -98.441406 34.804688 -97.402344 C 34.804688 -96.882812 35.066406 -96.363281 35.066406 -95.84375 C 35.066406 -95.324219 34.804688 -95.066406 34.546875 -94.804688 C 34.027344 -94.804688 33.507812 -94.804688 33.507812 -94.285156 C 32.988281 -93.765625 33.765625 -93.246094 33.507812 -92.726562 C 33.507812 -91.167969 32.46875 -89.609375 31.949219 -88.3125 C 31.949219 -88.3125 31.6875 -87.792969 30.648438 -84.933594 C 29.871094 -83.636719 28.050781 -80 25.714844 -75.066406 C 24.414062 -71.949219 23.636719 -68.832031 22.078125 -65.453125 C 20.777344 -62.335938 18.960938 -58.441406 17.664062 -54.804688 C 15.324219 -48.3125 12.988281 -41.039062 11.429688 -35.84375 C 9.609375 -29.351562 8.050781 -23.894531 7.53125 -22.078125 C 7.011719 -19.480469 6.234375 -17.402344 5.714844 -15.066406 C 5.714844 -14.285156 5.714844 -13.246094 5.195312 -12.726562 C 4.675781 -11.949219 4.15625 -11.949219 3.636719 -11.429688 C 3.117188 -10.910156 2.855469 -10.390625 2.855469 -10.128906 C 2.855469 -9.351562 3.375 -8.832031 3.894531 -8.050781 C 4.675781 -7.011719 5.195312 -5.453125 5.453125 -4.15625 C 5.714844 -3.375 5.972656 -2.078125 6.234375 -0.777344 C 6.492188 0 6.753906 0.777344 7.53125 1.296875 C 7.792969 1.558594 8.570312 1.296875 9.089844 1.558594 C 9.609375 1.816406 10.128906 2.335938 10.390625 2.855469 C 10.910156 3.636719 11.167969 4.414062 11.949219 4.933594 C 12.207031 5.453125 12.726562 5.714844 13.246094 5.714844 C 14.285156 5.714844 14.804688 4.414062 15.324219 4.414062 C 15.84375 4.414062 15.84375 4.933594 16.105469 5.714844 C 16.105469 6.234375 16.363281 7.011719 16.882812 7.011719 C 17.402344 7.011719 17.921875 6.234375 18.441406 6.234375 C 18.960938 5.972656 19.742188 5.972656 20.257812 5.972656 C 22.335938 5.972656 24.15625 5.714844 25.714844 5.453125 C 28.832031 4.675781 31.429688 3.117188 34.285156 1.296875 C 38.183594 -1.296875 41.816406 -4.15625 45.714844 -7.273438 C 49.089844 -10.128906 52.46875 -13.246094 55.585938 -16.105469 C 58.703125 -18.960938 61.558594 -21.816406 64.675781 -24.675781 C 67.792969 -27.53125 70.648438 -30.648438 73.765625 -33.765625 C 76.882812 -36.882812 80.257812 -40 83.117188 -43.636719 C 84.414062 -45.195312 84.933594 -46.753906 86.492188 -47.792969 C 88.050781 -49.089844 89.089844 -50.390625 90.390625 -51.949219 C 91.6875 -53.507812 92.988281 -55.066406 94.285156 -56.625 C 95.585938 -57.921875 96.105469 -59.480469 97.664062 -60.777344 C 99.21875 -62.335938 99.738281 -62.855469 100.519531 -64.933594 C 101.296875 -66.234375 102.597656 -66.492188 103.636719 -67.792969 C 104.933594 -69.089844 105.714844 -70.648438 106.753906 -72.207031 C 107.53125 -73.765625 108.3125 -75.066406 109.351562 -76.105469 C 111.167969 -77.402344 112.46875 -79.21875 113.765625 -80.777344 C 114.804688 -82.335938 115.84375 -83.636719 116.882812 -85.195312 C 118.183594 -87.011719 119.21875 -88.832031 120.777344 -90.390625 C 121.558594 -91.6875 122.855469 -92.726562 123.636719 -94.027344 C 124.414062 -95.84375 125.195312 -97.402344 126.492188 -98.960938 C 127.53125 -100.257812 129.089844 -101.558594 129.871094 -103.117188 C 131.949219 -106.492188 134.285156 -110.128906 136.105469 -113.765625 C 137.921875 -117.144531 139.738281 -120.519531 141.558594 -123.894531 C 143.636719 -128.832031 145.972656 -134.546875 145.972656 -140 C 145.972656 -142.855469 145.453125 -145.453125 143.894531 -148.050781 Z M 143.894531 -148.050781 "/></g></g></g></svg>